<?xml version="1.0" standalone="no"?>
<!DOCTYPE svg PUBLIC "-//W3C//DTD SVG 20010904//EN"
 "http://www.w3.org/TR/2001/REC-SVG-20010904/DTD/svg10.dtd">
<svg version="1.0" xmlns="http://www.w3.org/2000/svg"
 width="700.000000pt" height="700.000000pt" viewBox="0 0 700.000000 700.000000"
 preserveAspectRatio="xMidYMid meet">
<metadata>
Created by potrace 1.14, written by Peter Selinger 2001-2017
</metadata>
<g transform="translate(0.000000,700.000000) scale(0.100000,-0.100000)"
fill="#000000" stroke="none">
<path d="M5528 6455 c-2 -1 -39 -5 -83 -9 -114 -8 -328 -51 -464 -92 -386
-117 -755 -294 -1135 -546 -66 -44 -124 -80 -129 -81 -10 -2 -37 90 -29 98 3
3 1 5 -4 5 -5 0 -25 -28 -44 -63 -35 -60 -37 -62 -99 -79 -34 -9 -67 -18 -73
-20 -5 -2 19 -21 55 -42 l65 -38 19 -76 19 -77 24 45 c42 83 55 96 112 109 82
18 88 26 40 50 -23 12 -42 25 -42 29 1 19 410 231 620 321 197 84 483 174 620
195 138 21 311 26 398 12 256 -42 423 -207 477 -471 15 -74 22 -288 11 -340
-2 -11 -7 -42 -10 -70 -4 -27 -21 -107 -38 -177 -35 -145 -28 -141 -118 -59
-30 28 -58 51 -62 51 -3 0 -19 -33 -34 -72 -15 -40 -41 -111 -59 -158 -61
-159 -155 -416 -155 -421 0 -3 223 -6 497 -6 l496 0 -76 71 -75 71 42 105
c196 480 253 935 154 1225 -100 293 -311 455 -651 500 -46 6 -264 14 -269 10z"/>
<path d="M3230 5467 c0 -3 9 -24 19 -48 19 -42 19 -44 1 -91 l-18 -49 21 7
c12 3 33 12 46 19 20 10 32 9 72 -6 l49 -19 -19 49 c-20 49 -16 84 13 130 10
16 -2 14 -61 -10 -33 -13 -37 -13 -105 16 -10 4 -18 5 -18 2z"/>
<path d="M849 4337 c-2 -12 -4 -382 -3 -822 l0 -800 200 0 199 0 1 332 c0 183
3 335 6 339 4 3 162 6 352 7 340 2 346 2 347 -18 1 -11 2 -164 3 -340 l1 -320
198 -1 197 -2 0 823 0 823 -197 -1 -198 -2 -1 -320 c-1 -176 -2 -326 -3 -333
-1 -10 -75 -12 -353 -10 l-351 3 -1 330 -1 330 -196 2 c-196 2 -197 2 -200
-20z"/>
<path d="M2724 3537 l1 -822 190 0 190 0 0 588 c0 323 3 587 6 587 3 0 19 -21
36 -47 47 -74 346 -551 364 -581 22 -36 74 -120 189 -302 108 -171 138 -220
146 -236 3 -7 86 -11 249 -11 l245 0 0 823 0 823 -187 -2 -188 -2 -2 -595 c-1
-327 -2 -599 -2 -605 -1 -7 -200 317 -271 440 -9 17 -47 79 -83 139 -37 59
-67 110 -67 111 0 2 -34 58 -75 125 -41 67 -75 123 -75 125 0 1 -35 60 -78
131 l-79 129 -255 2 -254 2 0 -822z"/>
<path d="M5108 4355 c-2 -2 -23 -5 -48 -9 -147 -19 -236 -61 -315 -148 -80
-89 -120 -191 -124 -314 -4 -127 43 -247 131 -335 47 -47 147 -103 201 -114
15 -3 39 -7 55 -10 15 -3 38 -8 52 -12 14 -3 151 -7 305 -9 378 -3 405 -7 486
-65 95 -67 77 -238 -31 -294 -21 -11 -44 -16 -135 -30 -5 -1 -229 -3 -496 -3
l-486 -2 1 -147 1 -148 555 0 c694 1 735 4 854 65 111 56 206 181 231 305 24
116 6 265 -45 364 -62 123 -185 203 -357 232 -37 7 -191 13 -342 14 -366 4
-438 13 -495 63 -65 59 -65 194 0 254 51 45 118 50 688 51 l462 0 -1 146 0
146 -572 1 c-315 1 -574 0 -575 -1z"/>
<path d="M890 2547 c-144 -301 -252 -596 -296 -812 -16 -77 -34 -190 -39 -245
-7 -67 -7 -288 -1 -299 2 -3 6 -28 10 -56 41 -337 289 -580 644 -632 62 -10
290 -10 373 -1 558 62 1317 424 2069 987 85 64 162 121 171 128 16 12 41 -35
140 -265 13 -29 26 -51 30 -50 7 3 42 51 232 321 195 276 288 408 481 680 109
153 199 284 202 291 4 9 -162 12 -751 12 -415 0 -755 -3 -755 -7 0 -6 18 -47
83 -189 11 -25 42 -93 68 -152 l48 -107 -127 -94 c-576 -426 -1132 -697 -1607
-783 -118 -22 -311 -29 -403 -15 -351 55 -516 231 -587 628 -14 79 -14 378 -1
453 22 116 39 193 56 249 11 36 18 66 17 68 -2 1 -27 -48 -57 -110z"/>
<path d="M1163 2043 l0 -428 43 -1 c41 -1 44 1 45 25 1 38 1 760 0 799 -1 31
-2 32 -44 32 l-43 0 -1 -427z"/>
<path d="M1409 2468 c-4 -8 -5 -835 -1 -846 3 -8 18 -11 41 -10 l36 3 5 330 5
330 26 -50 c14 -27 61 -117 104 -200 43 -82 109 -208 146 -279 l68 -130 45 -2
c41 -2 46 0 47 19 0 29 0 739 0 795 l-1 43 -42 -3 -42 -3 0 -327 c0 -180 -3
-324 -7 -320 -3 4 -38 68 -76 142 -89 171 -191 367 -234 448 -33 61 -34 62
-76 62 -24 0 -44 -1 -44 -2z"/>
<path d="M2075 2048 c-1 -281 3 -425 10 -429 5 -4 26 -6 45 -5 l35 1 1 145 c1
80 2 148 3 152 1 3 24 34 53 68 l51 62 17 -29 c10 -15 63 -111 119 -213 l102
-186 55 -1 c67 -1 68 -6 -29 161 -38 66 -79 136 -90 156 -11 19 -40 70 -64
113 -31 52 -42 81 -36 90 5 6 67 83 136 169 70 86 127 158 127 161 0 2 -26 4
-57 5 l-58 2 -160 -205 c-88 -113 -162 -205 -165 -205 -3 0 -5 92 -5 205 l1
205 -46 0 -45 0 0 -422z"/>
</g>
</svg>
